<svg xmlns="http://www.w3.org/2000/svg" version="1.1" xmlnsXlink="http://www.w3.org/1999/xlink" xmlnsSvgjs="http://svgjs.dev/svgjs" width="1440" height="560" preserveAspectRatio="none" viewBox="0 0 1440 560"><g mask="url(&quot;#SvgjsMask1049&quot;)" fill="none"><rect width="1440" height="560" x="0" y="0" fill="rgba(255, 247, 236, 0.91)"></rect><path d="M 0,245 C 57.6,214.4 172.8,110.2 288,92 C 403.2,73.8 460.8,160 576,154 C 691.2,148 748.8,49.4 864,62 C 979.2,74.6 1036.8,203.2 1152,217 C 1267.2,230.8 1382.4,148.2 1440,131L1440 560L0 560z" fill="rgba(255, 255, 255, 1)"></path><path d="M 0,310 C 96,347 288,484 480,495 C 672,506 768,355.2 960,365 C 1152,374.8 1344,508.2 1440,544L1440 560L0 560z" fill="rgba(255, 141, 0, 0.2)"></path></g><defs><mask id="SvgjsMask1049"><rect width="1440" height="560" fill="#ffffff"></rect></mask></defs></svg>